#!OML:ASF E:\Mandelcareful walks\Project 1\Capture day 1\Session 1\Subject1.ASF
:FULLY-SPECIFIED
:DEGREES
353
root -12.9955 13.8407 1.17924 -185.219 63.0751 150.536
lowerback 25.2446 6.32301 -4.67598
upperback 8.23025 7.74308 -4.79134
thorax -4.62832 4.22812 -4.8263
lowerneck -18.5234 -15.5522 -17.3059
upperneck 5.20431 -18.5686 14.8917
head 7.56985 -8.31805 4.95039
rclavicle -1.04958e-013 1.30403e-013
rhumerus -48.1208 24.8368 -87.3521
rradius 67.3238
rwrist -14.2408
rhand -26.2064 -27.2715
rfingers 7.12502
rthumb 0.346413 -57.2509
lclavicle -1.04958e-013 1.30403e-013
lhumerus -34.8413 39.7899 27.9167
lradius 27.9652
lwrist -23.7097
lhand -49.0313 -33.4662
lfingers 7.12502
lthumb -21.6591 -4.65765
rfemur -45.6835 -37.1349 -6.68019
rtibia 75.8483
rfoot -29.4691 -7.11299
rtoes -27.117
lfemur -68.2563 -1.44222 -25.5443
ltibia 75.1119
lfoot -23.8937 1.82031
ltoes -9.57025
354
root -13.0093 13.842 1.14901 -185.965 63.5263 150.015
lowerback 25.3233 6.174 -4.77
upperback 8.2453 7.52159 -4.68782
thorax -4.68627 4.11413 -4.6065
lowerneck -18.8828 -15.4735 -17.5827
upperneck 5.35967 -18.3823 15.1215
head 7.70158 -8.1976 5.07942
rclavicle -3.65764e-014 7.63333e-014
rhumerus -47.9104 24.9386 -87.1244
rradius 67.516
rwrist -14.2613
rhand -27.2679 -27.5687
rfingers 7.12502
rthumb -0.678825 -57.5473
lclavicle -3.65764e-014 7.63333e-014
lhumerus -35.6095 40.1823 27.5006
lradius 27.8703
lwrist -24.3528
lhand -49.0554 -33.1089
lfingers 7.12502
lthumb -21.6822 -4.30304
rfemur -45.6008 -36.9336 -6.94053
rtibia 75.653
rfoot -29.4882 -7.07249
rtoes -27.5607
lfemur -67.9336 -1.30719 -25.7111
ltibia 75.2144
lfoot -24.0901 2.17658
ltoes -9.513
355
root -13.023 13.8408 1.12215 -186.411 64.0557 149.735
lowerback 25.1485 6.08623 -4.88268
upperback 8.29772 7.3969 -4.48168
thorax -4.59191 4.04338 -4.25669
lowerneck -19.3715 -15.4293 -17.8805
upperneck 5.71271 -18.1889 15.081
head 7.88492 -8.08623 5.11766
rclavicle -5.88403e-014 0
rhumerus -47.7322 25.3147 -86.9194
rradius 67.676
rwrist -14.5427
rhand -37.1896 -29.0942
rfingers 7.12502
rthumb -10.2575 -58.8241
lclavicle -5.88403e-014 0
lhumerus -36.2931 40.6108 27.24
lradius 27.8794
lwrist -24.8609
lhand -49.4172 -32.9103
lfingers 7.12502
lthumb -22.0296 -4.14501
rfemur -45.6961 -36.6544 -6.93232
rtibia 75.473
rfoot -29.4577 -6.98429
rtoes -27.5633
lfemur -67.7549 -1.09172 -25.7281
ltibia 75.3196
lfoot -24.2913 2.58308
ltoes -10.2403
356
root -13.0342 13.8445 1.1001 -186.885 64.6758 149.454
lowerback 24.9934 6.13763 -4.93024
upperback 8.31702 7.45743 -4.36616
thorax -4.51601 4.06479 -4.10104
lowerneck -19.5554 -15.3672 -17.8901
upperneck 5.95333 -18.0663 14.9104
head 7.95414 -8.03129 5.07599
rclavicle 7.95139e-015 -5.56597e-014
rhumerus -47.6221 25.2775 -86.8651
rradius 67.7036
rwrist -14.2636
rhand -38.3379 -29.4466
rfingers 7.12502
rthumb -11.3652 -59.1186
lclavicle 7.95139e-015 -5.56597e-014
lhumerus -36.4281 40.9884 27.1457
lradius 27.8391
lwrist -25.3472
lhand -49.5476 -32.9663
lfingers 7.12502
lthumb -22.1548 -4.21576
rfemur -45.8357 -36.2087 -6.83346
rtibia 75.2819
rfoot -29.3606 -6.90234
rtoes -26.7087
lfemur -67.5388 -0.700755 -25.7112
ltibia 75.4174
lfoot -24.4575 2.84896
ltoes -10.8924
357
root -13.0443 13.8528 1.07379 -187.535 65.2582 149.045
lowerback 24.9934 6.20106 -4.80406
upperback 8.27956 7.55335 -4.43626
thorax -4.53015 4.11068 -4.27711
lowerneck -19.44 -15.2149 -17.4588
upperneck 5.90764 -17.9551 14.7197
head 7.84423 -7.99199 4.98312
rclavicle -3.65764e-014 9.54166e-015
rhumerus -47.5635 24.82 -86.9447
rradius 67.7712
rwrist -13.6952
rhand -35.8579 -29.2492
rfingers 7.12502
rthumb -8.97266 -59.0384
lclavicle -3.65764e-014 9.54166e-015
lhumerus -36.0573 41.1027 27.1816
lradius 27.7372
lwrist -25.733
lhand -49.1796 -33.1475
lfingers 7.12502
lthumb -21.8015 -4.35546
rfemur -45.8397 -35.7674 -6.88784
rtibia 75.0355
rfoot -29.2984 -6.85184
rtoes -25.4279
lfemur -67.2299 -0.358918 -25.7545
ltibia 75.5039
lfoot -24.6516 3.06028
ltoes -10.9415
358
root -13.0573 13.8586 1.04644 -188.436 65.7493 148.392
lowerback 25.2005 6.34043 -4.45829
upperback 8.12579 7.7633 -4.72105
thorax -4.70977 4.21679 -4.87811
lowerneck -18.7887 -15.0737 -16.5872
upperneck 5.56632 -18.0324 14.531
head 7.54538 -8.06446 4.82321
rclavicle -3.02153e-014 1.09729e-013
rhumerus -47.7473 23.4748 -87.385
rradius 67.7818
rwrist -13
rhand -35.196 -29.4325
rfingers 7.12502
rthumb -8.33394 -59.2481
lclavicle -3.02153e-014 1.09729e-013
lhumerus -34.8658 40.4551 27.6536
lradius 27.5685
lwrist -25.7911
lhand -48.5838 -32.8959
lfingers 7.12502
lthumb -21.2293 -4.03841
rfemur -45.7451 -35.4125 -7.13139
rtibia 74.757
rfoot -29.2534 -6.96589
rtoes -24.8602
lfemur -66.892 -0.133992 -25.9248
ltibia 75.5712
lfoot -24.8473 3.39602
ltoes -11.0135
359
root -13.0693 13.8655 1.0223 -189.551 66.2086 147.627
lowerback 25.5351 6.29491 -4.45952
upperback 8.06199 7.6657 -4.74379
thorax -4.94428 4.16481 -4.9242
lowerneck -18.9027 -14.9721 -16.6056
upperneck 5.72005 -17.8698 14.4277
head 7.5792 -7.9886 4.81626
rclavicle -7.95139e-014 6.83819e-014
rhumerus -47.7106 23.1457 -87.6203
rradius 67.7205
rwrist -12.6047
rhand -35.8862 -29.5056
rfingers 7.12502
rthumb -8.99996 -59.2936
lclavicle -7.95139e-014 6.83819e-014
lhumerus -34.9639 40.1542 27.6279
lradius 27.6211
lwrist -25.6642
lhand -48.2767 -32.8587
lfingers 7.12502
lthumb -20.9343 -3.96832
rfemur -45.5334 -35.0372 -7.44152
rtibia 74.4622
rfoot -29.1046 -7.33647
rtoes -25.2054
lfemur -66.3958 0.0828347 -26.1225
ltibia 75.5993
lfoot -25.0716 3.75004
ltoes -11.3948
360
root -13.0785 13.8691 0.996961 -190.376 66.694 147.107
lowerback 25.436 6.23362 -4.49963
upperback 8.17729 7.6013 -4.6978
thorax -4.78256 4.1373 -4.80907
lowerneck -19.2561 -14.8502 -16.4815
upperneck 5.83433 -17.6561 14.2551
head 7.60959 -7.87773 4.7668
rclavicle 7.95139e-015 -1.43125e-014
rhumerus -47.5161 23.3576 -87.5416
rradius 67.9636
rwrist -12.7849
rhand -36.2727 -29.1541
rfingers 7.12502
rthumb -9.3729 -58.9257
lclavicle 7.95139e-015 -1.43125e-014
lhumerus -34.9107 40.0611 27.6776
lradius 27.5163
lwrist -25.5335
lhand -48.3469 -33.6091
lfingers 7.12502
lthumb -21.0017 -4.72624
rfemur -45.4243 -34.687 -7.57688
rtibia 74.1983
rfoot -28.8147 -7.51384
rtoes -25.6944
lfemur -65.9952 0.277168 -26.1732
ltibia 75.6533
lfoot -25.3015 4.05823
ltoes -11.8479
361
root -13.0894 13.8677 0.9725 -190.95 67.231 146.693
lowerback 25.377 6.21166 -4.34036
upperback 8.14739 7.60154 -4.73339
thorax -4.76417 4.1354 -4.93042
lowerneck -19.5879 -14.7747 -16.4264
upperneck 6.13956 -17.5274 14.1439
head 7.72587 -7.80504 4.72782
rclavicle 7.95139e-015 0
rhumerus -47.5086 23.6015 -87.5174
rradius 68.2677
rwrist -12.9671
rhand -35.9944 -28.9228
rfingers 7.12502
rthumb -9.1044 -58.7063
lclavicle 7.95139e-015 0
lhumerus -34.3596 39.3276 28.0409
lradius 27.2002
lwrist -25.1944
lhand -48.7963 -33.6764
lfingers 7.12502
lthumb -21.4334 -4.84204
rfemur -45.5074 -34.3226 -7.58096
rtibia 73.9837
rfoot -28.4479 -7.33317
rtoes -25.6612
lfemur -65.82 0.463634 -26.1254
ltibia 75.7546
lfoot -25.465 4.27763
ltoes -11.7577
362
root -13.1046 13.8659 0.95033 -191.612 67.7718 146.135
lowerback 25.3592 6.21706 -4.26627
upperback 8.08262 7.60662 -4.6916
thorax -4.82589 4.12901 -4.9305
lowerneck -19.9298 -14.7308 -16.6249
upperneck 6.52398 -17.3774 14.0131
head 7.88604 -7.7291 4.72052
rclavicle -6.20208e-014 8.26944e-014
rhumerus -47.5069 23.7832 -87.4232
rradius 68.4735
rwrist -12.9895
rhand -35.5925 -29.194
rfingers 7.12502
rthumb -8.71655 -58.9941
lclavicle -6.20208e-014 8.26944e-014
lhumerus -34.0265 38.5234 28.5325
lradius 27.0351
lwrist -24.8723
lhand -49.2276 -32.8447
lfingers 7.12502
lthumb -21.8476 -4.05798
rfemur -45.6732 -33.9648 -7.59392
rtibia 73.7922
rfoot -28.1881 -7.20326
rtoes -25.7142
lfemur -65.7111 0.691466 -26.1411
ltibia 75.8467
lfoot -25.5554 4.45204
ltoes -11.3072
363
root -13.1019 13.8732 0.936011 -192.714 68.7285 145.338
lowerback 25.2664 6.39066 -4.71614
upperback 8.13443 7.72818 -4.42705
thorax -4.81023 4.17239 -4.41355
lowerneck -20.3269 -14.6094 -17.0135
upperneck 6.76713 -17.0194 13.7913
head 7.9822 -7.5648 4.75182
rclavicle -2.06736e-013 3.65764e-014
rhumerus -47.45 24.3319 -87.1492
rradius 68.706
rwrist -13.082
rhand -35.176 -29.5509
rfingers 7.12502
rthumb -8.31458 -59.3673
lclavicle -2.06736e-013 3.65764e-014
lhumerus -34.5623 38.3556 28.6035
lradius 27.1121
lwrist -24.7263
lhand -49.4022 -32.2869
lfingers 7.12502
lthumb -22.0153 -3.51991
rfemur -45.8656 -32.9565 -7.40946
rtibia 73.5973
rfoot -28.2871 -7.21848
rtoes -25.1501
lfemur -65.2839 1.53885 -26.0772
ltibia 75.8585
lfoot -25.7556 4.54577
ltoes -11.4878
364
root -13.1101 13.8858 0.917505 -193.801 69.0747 144.546
lowerback 25.4608 6.52041 -4.6056
upperback 8.08774 7.89468 -4.53356
thorax -4.91985 4.25482 -4.6686
lowerneck -19.976 -14.513 -16.3813
upperneck 6.58736 -17.0452 13.4599
head 7.78262 -7.60783 4.56824
rclavicle -7.95139e-014 -1.59028e-014
rhumerus -47.676 23.52 -87.2989
rradius 68.9163
rwrist -13.0316
rhand -34.9999 -29.5475
rfingers 7.12502
rthumb -8.14465 -59.3706
lclavicle -7.95139e-014 -1.59028e-014
lhumerus -33.7438 37.8061 29.0655
lradius 26.9747
lwrist -24.8314
lhand -49.5147 -31.7921
lfingers 7.12502
lthumb -22.1232 -3.03786
rfemur -45.5991 -32.6544 -7.70821
rtibia 73.334
rfoot -28.3663 -6.91657
rtoes -24.0702
lfemur -64.7963 1.74971 -26.2375
ltibia 75.8088
lfoot -26.0038 4.71472
ltoes -11.9634
365
root -13.1227 13.8995 0.891414 -194.731 69.2379 143.843
lowerback 25.494 6.24023 -4.82298
upperback 8.31493 7.52371 -4.29602
thorax -4.75841 4.07689 -4.1648
lowerneck -21.1311 -14.4286 -16.7597
upperneck 7.06629 -16.6205 13.2065
head 8.06198 -7.37555 4.56375
rclavicle -1.7175e-013 7.4743e-014
rhumerus -47.1749 24.5069 -86.8933
rradius 69.1384
rwrist -13.2789
rhand -35.1309 -29.5625
rfingers 7.12502
rthumb -8.27109 -59.3805
lclavicle -1.7175e-013 7.4743e-014
lhumerus -34.5791 38.6947 28.7893
lradius 26.9975
lwrist -25.1876
lhand -49.4201 -31.3307
lfingers 7.12502
lthumb -22.0324 -2.56567
rfemur -45.276 -32.6206 -8.12796
rtibia 73.0119
rfoot -28.2644 -6.65697
rtoes -23.7032
lfemur -64.38 1.69894 -26.4681
ltibia 75.7446
lfoot -26.1884 5.03288
ltoes -12.3888
366
root -13.1383 13.9024 0.869007 -195.339 69.6204 143.298
lowerback 25.4551 6.2325 -4.70558
upperback 8.26939 7.52954 -4.2763
thorax -4.78052 4.07459 -4.20847
lowerneck -21.0548 -14.293 -16.6119
upperneck 6.93429 -16.4533 13.0812
head 7.95672 -7.30743 4.53984
rclavicle 2.38542e-014 -1.11319e-014
rhumerus -47.2181 24.3229 -86.8614
rradius 69.4401
rwrist -13.1721
rhand -35.278 -29.5822
rfingers 7.12502
rthumb -8.41307 -59.3946
lclavicle 2.38542e-014 -1.11319e-014
lhumerus -34.418 38.5587 28.9669
lradius 26.9094
lwrist -25.2685
lhand -49.3242 -31.0299
lfingers 7.12502
lthumb -21.9403 -2.25408
rfemur -45.4006 -32.3943 -8.17346
rtibia 72.7254
rfoot -28.0408 -6.60073
rtoes -23.7795
lfemur -64.2924 1.83354 -26.5546
ltibia 75.7364
lfoot -26.2548 5.45331
ltoes -12.7975
367
root -13.154 13.8991 0.856417 -195.699 70.1639 142.896
lowerback 25.398 6.42525 -4.41204
upperback 8.06853 7.80329 -4.4202
thorax -4.91082 4.19954 -4.61724
lowerneck -20.5146 -14.174 -15.8707
upperneck 6.63636 -16.5136 12.7935
head 7.69314 -7.36967 4.3578
rclavicle 2.06736e-014 -6.36111e-014
rhumerus -47.4944 23.4434 -87.1346
rradius 69.6054
rwrist -12.9961
rhand -35.5755 -29.4194
rfingers 7.12502
rthumb -8.70017 -59.2201
lclavicle 2.06736e-014 -6.36111e-014
lhumerus -33.4324 37.5389 29.623
lradius 26.8183
lwrist -25.0687
lhand -49.6458 -30.3235
lfingers 7.12502
lthumb -22.2491 -1.58418
rfemur -45.8152 -32.002 -7.89151
rtibia 72.5376
rfoot -27.7529 -6.59531
rtoes -23.9262
lfemur -64.4327 2.17593 -26.4712
ltibia 75.7831
lfoot -26.2384 5.68454
ltoes -12.6722
